<svg width="1873" height="689" viewBox="0 0 1873 689" fill="none" xmlns="http://www.w3.org/2000/svg">
<path d="M1314.27 582.128C1255.69 582.13 1196.12 566.366 1133.77 534.538C1061.09 497.437 992.128 442.662 925.437 389.693C860.131 337.82 792.627 284.203 723.946 249.454C688.271 231.404 654.988 219.652 622.195 213.528C586.127 206.794 551.297 206.963 515.711 214.044C458.65 225.401 409.415 248.425 365.195 284.432C324.736 317.375 291.576 358.28 259.508 397.839C228.336 436.292 196.116 476.041 157.024 508.884C133.379 528.75 109.25 544.421 83.2591 556.793C82.6021 557.106 81.8478 557.145 81.162 556.902C80.4762 556.658 79.9152 556.153 79.6024 555.496C79.2895 554.839 79.2505 554.084 79.4938 553.399C79.7372 552.713 80.243 552.152 80.8999 551.839C106.466 539.67 130.212 524.246 153.494 504.683C192.185 472.179 224.237 432.637 255.235 394.398C287.49 354.608 320.832 313.479 361.73 280.177C406.661 243.591 456.679 220.198 514.64 208.662C550.924 201.442 586.435 201.27 623.202 208.135C656.514 214.356 690.277 226.271 726.423 244.559C795.601 279.56 863.328 333.353 928.825 385.377C995.329 438.198 1064.07 492.799 1136.27 529.651C1220.42 572.609 1299.35 585.925 1377.57 570.357C1451.1 555.724 1512.26 527.516 1564.56 484.121C1592.41 461.016 1614.5 436.028 1632.44 414.633C1638.29 407.65 1641.73 402.658 1645.05 397.831C1646.96 395.055 1648.93 392.183 1651.33 388.985C1697.73 327.116 1732.65 285.782 1755.15 266.127C1774.38 249.324 1794.36 236.528 1816.23 227.009C1816.9 226.719 1817.65 226.706 1818.33 226.972C1819 227.239 1819.55 227.763 1819.84 228.43C1820.13 229.097 1820.14 229.853 1819.88 230.53C1819.61 231.207 1819.08 231.75 1818.42 232.04C1797.07 241.331 1777.56 253.832 1758.76 270.259C1736.55 289.662 1701.88 330.714 1655.72 392.277C1653.39 395.386 1651.53 398.083 1649.57 400.94C1646.17 405.874 1642.67 410.974 1636.64 418.158C1618.55 439.741 1596.25 464.958 1568.07 488.343C1515.05 532.335 1453.08 560.923 1378.64 575.738C1357.26 579.992 1335.83 582.128 1314.27 582.129V582.128Z" fill="white" fill-opacity="0.1"/>
<path d="M82.0813 557.06C81.4582 557.061 80.8532 556.85 80.3661 556.462C79.8789 556.073 79.5385 555.53 79.401 554.922C79.2635 554.315 79.337 553.678 79.6094 553.118C79.8819 552.557 80.337 552.106 80.8999 551.839C106.466 539.67 130.212 524.246 153.494 504.683C192.185 472.179 224.237 432.637 255.235 394.397C287.49 354.608 320.832 313.479 361.73 280.177C406.661 243.591 456.679 220.198 514.64 208.662C550.924 201.442 586.435 201.27 623.202 208.135C656.514 214.356 690.278 226.271 726.423 244.559C795.601 279.56 863.328 333.353 928.825 385.377C941.845 395.718 955.29 406.398 968.789 416.957C969.343 417.412 969.696 418.065 969.774 418.777C969.853 419.489 969.649 420.204 969.208 420.768C968.767 421.332 968.122 421.701 967.412 421.797C966.703 421.892 965.983 421.706 965.409 421.279C951.894 410.706 938.44 400.021 925.431 389.688C860.131 337.82 792.627 284.202 723.946 249.454C688.271 231.404 654.988 219.652 622.195 213.528C586.128 206.794 551.297 206.963 515.711 214.044C458.649 225.401 409.415 248.425 365.195 284.432C324.736 317.375 291.576 358.28 259.508 397.839C228.336 436.292 196.116 476.041 157.024 508.884C133.379 528.75 109.25 544.421 83.2591 556.793C82.8913 556.969 82.4889 557.06 82.0813 557.06V557.06Z" fill="white" fill-opacity="0.1"/>
<path d="M2.73132 566.013C2.05198 566.01 1.39802 565.755 0.89593 565.297C0.393836 564.839 0.079272 564.212 0.0130706 563.536C-0.0531308 562.859 0.133734 562.183 0.537527 561.637C0.94132 561.09 1.53335 560.713 2.19914 560.578C54.3795 550.193 100.406 527.787 142.907 492.081C180.387 460.593 211.937 421.672 242.448 384.032C275.223 343.602 309.114 301.795 351.337 267.413C398.404 229.089 450.769 204.591 511.428 192.52C549.806 184.882 587.355 184.696 626.224 191.955C661.091 198.467 696.297 210.869 733.855 229.872C804.532 265.631 872.932 319.961 939.08 372.501C1004.94 424.808 1073.02 478.885 1143.75 514.991C1224.48 556.2 1299.91 569.031 1374.36 554.213C1445.13 540.128 1503.91 513.057 1554.05 471.454C1577.45 452.038 1599.2 429.704 1620.54 403.174L1620.7 402.972C1628.49 393.283 1634.65 385.632 1642.66 375.023C1648.63 367.126 1654.57 359.212 1660.49 351.281C1687.3 315.361 1712.61 281.441 1744.32 253.733C1779.45 223.031 1817.46 204.425 1863.92 195.178C1864.64 195.036 1865.38 195.183 1865.98 195.587C1866.59 195.991 1867.01 196.619 1867.15 197.333C1867.29 198.046 1867.14 198.787 1866.74 199.392C1866.33 199.997 1865.71 200.417 1864.99 200.559C1819.51 209.611 1782.31 227.82 1747.93 257.865C1716.66 285.189 1691.51 318.882 1664.9 354.554C1658.97 362.496 1653.01 370.421 1647.04 378.328C1638.98 389.005 1632.8 396.686 1624.98 406.411L1624.81 406.613C1603.24 433.432 1581.24 456.024 1557.56 475.676C1506.69 517.877 1447.12 545.328 1375.43 559.594C1299.72 574.662 1223.12 561.67 1141.26 519.878C1070.04 483.523 1001.73 429.272 935.68 376.809C869.735 324.428 801.556 270.275 731.378 234.767C694.291 216.004 659.566 203.763 625.216 197.348C587.049 190.221 550.179 190.402 512.498 197.9C452.74 209.793 401.157 233.922 354.802 271.668C313.018 305.69 279.309 347.273 246.71 387.488C216.037 425.328 184.318 464.456 146.436 496.282C103.21 532.598 56.3793 555.389 3.26899 565.959C3.08885 565.996 2.90871 566.013 2.73132 566.013V566.013Z" fill="white" fill-opacity="0.1"/>
<path d="M58.8244 584.571C58.1791 584.569 57.555 584.341 57.0616 583.925C56.5682 583.509 56.2372 582.932 56.1265 582.297C56.0158 581.661 56.1327 581.006 56.4565 580.448C56.7803 579.89 57.2904 579.464 57.8972 579.244C96.0607 565.519 130.794 545.253 164.083 517.287C203.975 483.772 236.534 443.607 268.02 404.765C299.742 365.633 332.542 325.17 372.122 292.941C376.956 289.005 381.894 285.199 386.931 281.528C387.52 281.107 388.251 280.935 388.965 281.051C389.679 281.166 390.319 281.559 390.745 282.144C391.171 282.729 391.349 283.458 391.239 284.174C391.13 284.889 390.742 285.532 390.161 285.963C385.203 289.576 380.344 293.322 375.587 297.196C336.447 329.067 303.829 369.305 272.283 408.217C240.633 447.262 207.906 487.633 167.612 521.486C133.819 549.877 98.5378 570.458 59.7534 584.406C59.4471 584.517 59.1334 584.57 58.8253 584.57L58.8244 584.571Z" fill="white" fill-opacity="0.1"/>
<path d="M2.73132 566.013C2.05198 566.01 1.39802 565.755 0.89593 565.297C0.393836 564.839 0.079272 564.212 0.0130706 563.536C-0.0531308 562.859 0.133734 562.183 0.537527 561.636C0.94132 561.09 1.53335 560.713 2.19914 560.578C54.3795 550.193 100.406 527.787 142.907 492.081C180.387 460.593 211.937 421.672 242.448 384.032C275.223 343.602 309.114 301.795 351.337 267.413C398.404 229.089 450.769 204.591 511.428 192.52C549.806 184.882 587.355 184.697 626.224 191.955C661.091 198.467 696.297 210.869 733.855 229.872C734.178 230.034 734.467 230.258 734.704 230.531C734.94 230.804 735.121 231.122 735.234 231.465C735.348 231.808 735.393 232.171 735.366 232.531C735.339 232.892 735.241 233.244 735.078 233.566C734.914 233.889 734.689 234.176 734.414 234.411C734.139 234.646 733.821 234.825 733.477 234.936C733.133 235.048 732.77 235.091 732.41 235.061C732.049 235.032 731.698 234.932 731.377 234.767C694.291 216.004 659.566 203.763 625.216 197.348C587.049 190.22 550.179 190.402 512.498 197.9C452.74 209.793 401.157 233.922 354.802 271.668C313.018 305.69 279.309 347.273 246.71 387.488C216.037 425.328 184.318 464.456 146.436 496.282C103.21 532.598 56.3793 555.389 3.26899 565.959C3.08885 565.996 2.90871 566.013 2.73132 566.013V566.013Z" fill="white" fill-opacity="0.1"/>
<path d="M40.3371 538.75C39.6903 538.749 39.0649 538.519 38.571 538.101C38.0772 537.684 37.7467 537.105 37.6379 536.468C37.5291 535.83 37.6489 535.175 37.9763 534.617C38.3037 534.059 38.8176 533.635 39.4272 533.419C124.36 503.566 175.51 440.468 229.662 373.667C297.072 290.511 366.778 204.524 508.216 176.375C548.687 168.319 588.277 168.124 629.246 175.774C665.668 182.576 702.316 195.467 741.285 215.183C813.453 251.698 882.523 306.558 949.318 359.612C954.466 363.7 959.611 367.787 964.756 371.865C965.038 372.089 965.274 372.366 965.449 372.681C965.624 372.996 965.736 373.342 965.777 373.7C965.819 374.058 965.79 374.42 965.691 374.767C965.592 375.113 965.426 375.437 965.203 375.719C964.979 376.001 964.702 376.237 964.387 376.412C964.072 376.588 963.726 376.699 963.368 376.741C963.01 376.782 962.648 376.753 962.301 376.654C961.955 376.555 961.631 376.389 961.349 376.166C956.199 372.083 951.05 367.997 945.905 363.908C879.325 311.026 810.478 256.342 738.808 220.079C700.31 200.6 664.142 187.873 628.238 181.169C587.971 173.648 549.06 173.841 509.287 181.756C369.793 209.518 300.72 294.722 233.925 377.121C179.269 444.544 127.644 508.226 41.2469 538.593C40.9461 538.7 40.6388 538.749 40.3371 538.749V538.75Z" fill="white" fill-opacity="0.1"/>
<path d="M126.191 608.585C125.579 608.586 124.984 608.382 124.501 608.006C124.019 607.63 123.675 607.103 123.527 606.509C123.378 605.915 123.432 605.289 123.68 604.729C123.928 604.17 124.356 603.709 124.896 603.421C149.35 590.361 173.222 574.101 195.846 555.095C239.362 518.535 273.433 476.505 306.379 435.86C336.522 398.678 367.689 360.231 403.303 331.232C439.701 301.594 480.323 282.623 527.491 273.236C555.392 267.683 582.746 267.559 611.118 272.856C638.204 277.913 666.198 287.874 696.701 303.307C759.887 335.276 824.936 386.943 887.845 436.907C951.208 487.235 1016.73 539.275 1087.49 578.287C1088.13 578.638 1088.6 579.228 1088.8 579.927C1089 580.626 1088.92 581.376 1088.57 582.013C1088.39 582.329 1088.16 582.607 1087.88 582.832C1087.6 583.057 1087.27 583.224 1086.93 583.324C1086.58 583.425 1086.22 583.455 1085.86 583.415C1085.5 583.375 1085.16 583.265 1084.84 583.09C1013.67 543.858 947.973 491.672 884.434 441.204C821.74 391.409 756.911 339.92 694.224 308.203C664.191 293.008 636.678 283.21 610.111 278.249C582.44 273.083 555.764 273.204 528.562 278.617C482.293 287.825 442.453 306.427 406.767 335.487C371.595 364.127 340.608 402.35 310.642 439.314C277.531 480.16 243.294 522.397 199.375 559.296C176.46 578.548 152.271 595.022 127.481 608.261C127.085 608.474 126.642 608.585 126.192 608.585H126.191Z" fill="white" fill-opacity="0.1"/>
<path d="M82.0813 557.06C81.4582 557.061 80.8532 556.85 80.3661 556.462C79.8789 556.073 79.5385 555.53 79.401 554.922C79.2635 554.315 79.337 553.678 79.6094 553.118C79.8819 552.557 80.337 552.106 80.8999 551.839C106.466 539.67 130.212 524.246 153.494 504.683C173.191 488.136 192.663 468.583 214.773 443.148C215.255 442.615 215.927 442.293 216.644 442.25C217.361 442.207 218.067 442.447 218.609 442.918C219.152 443.39 219.487 444.055 219.544 444.772C219.601 445.488 219.374 446.198 218.913 446.749C196.611 472.405 176.945 492.148 157.024 508.884C133.379 528.75 109.25 544.421 83.2591 556.793C82.8913 556.969 82.4889 557.06 82.0813 557.06V557.06Z" fill="white" fill-opacity="0.1"/>
<path d="M1313.66 664.534C1242.34 664.534 1170.63 645.755 1096.36 607.841C1059.97 589.266 1010.65 560.84 920.768 490.841C920.193 490.394 919.82 489.737 919.73 489.015C919.641 488.293 919.841 487.565 920.288 486.991C920.735 486.417 921.392 486.044 922.114 485.954C922.836 485.864 923.564 486.064 924.138 486.511C1013.66 556.229 1062.69 584.498 1098.85 602.954C1200.13 654.654 1296.55 670.394 1393.63 651.074C1478.2 634.244 1551.31 600.343 1617.15 547.431C1617.72 546.975 1618.44 546.763 1619.16 546.842C1619.89 546.921 1620.55 547.284 1621.01 547.851C1621.46 548.418 1621.67 549.143 1621.6 549.866C1621.52 550.59 1621.15 551.252 1620.59 551.708C1554.04 605.186 1480.16 639.448 1394.7 656.455C1367.68 661.833 1340.69 664.534 1313.66 664.534Z" fill="white" fill-opacity="0.1"/>
<path d="M1313.79 648.051C1245.01 648.052 1175.72 629.875 1103.84 593.18C1025.3 553.088 953.686 496.21 884.436 441.206C821.74 391.409 756.912 339.921 694.224 308.203C664.191 293.008 636.678 283.209 610.111 278.249C582.44 273.083 555.764 273.204 528.562 278.617C482.293 287.825 442.453 306.427 406.767 335.487C371.595 364.127 340.608 402.35 310.642 439.314C277.531 480.16 243.294 522.397 199.375 559.296C176.46 578.548 152.271 595.022 127.481 608.261C126.839 608.604 126.087 608.678 125.391 608.466C124.695 608.255 124.111 607.776 123.768 607.134C123.425 606.492 123.351 605.74 123.563 605.044C123.774 604.348 124.254 603.764 124.896 603.421C149.35 590.361 173.222 574.101 195.846 555.095C239.362 518.535 273.433 476.505 306.379 435.859C336.522 398.678 367.689 360.231 403.303 331.233C439.701 301.593 480.323 282.623 527.491 273.236C555.392 267.683 582.747 267.559 611.118 272.856C638.204 277.913 666.198 287.874 696.701 303.307C759.888 335.276 824.936 386.943 887.845 436.907C956.888 491.746 1028.28 548.451 1106.33 588.293C1204.18 638.245 1297.11 653.499 1390.42 634.93C1474.46 618.204 1533.13 591.711 1599.66 540.44C1606.14 535.445 1611.09 531.445 1617.18 525.784C1617.72 525.305 1618.42 525.055 1619.14 525.088C1619.86 525.122 1620.53 525.435 1621.02 525.962C1621.51 526.489 1621.78 527.186 1621.76 527.905C1621.74 528.623 1621.43 529.305 1620.92 529.804C1614.67 535.609 1609.62 539.693 1603.01 544.785C1535.75 596.623 1476.44 623.405 1391.49 640.311C1365.59 645.465 1339.72 648.051 1313.79 648.051H1313.79Z" fill="white" fill-opacity="0.1"/>
<path d="M1269.51 645.523C1269.4 645.523 1269.3 645.519 1269.2 645.506C1214.78 639.318 1160.69 622.201 1103.84 593.18C1025.3 553.088 953.686 496.21 884.436 441.206C821.74 391.409 756.912 339.921 694.223 308.203C664.191 293.008 636.678 283.209 610.111 278.249C582.44 273.083 555.765 273.204 528.562 278.617C482.293 287.825 442.454 306.428 406.767 335.487C371.595 364.127 340.608 402.35 310.642 439.314C277.531 480.161 243.294 522.397 199.375 559.296C176.46 578.548 152.271 595.022 127.481 608.261C127.164 608.431 126.815 608.536 126.457 608.572C126.098 608.607 125.736 608.571 125.392 608.466C125.047 608.362 124.726 608.19 124.448 607.961C124.169 607.733 123.939 607.452 123.769 607.134C123.599 606.816 123.494 606.468 123.458 606.109C123.423 605.751 123.459 605.389 123.564 605.044C123.668 604.699 123.84 604.379 124.069 604.1C124.297 603.822 124.579 603.591 124.896 603.421C149.35 590.361 173.222 574.101 195.846 555.095C239.362 518.535 273.433 476.505 306.379 435.859C336.522 398.678 367.689 360.231 403.303 331.233C439.7 301.594 480.323 282.623 527.491 273.236C555.392 267.683 582.747 267.559 611.118 272.856C638.203 277.913 666.198 287.874 696.701 303.307C759.888 335.276 824.936 386.943 887.844 436.907C956.888 491.746 1028.28 548.451 1106.33 588.293C1162.59 617.01 1216.06 633.942 1269.81 640.055C1270.51 640.132 1271.15 640.473 1271.61 641.009C1272.06 641.544 1272.29 642.233 1272.25 642.934C1272.21 643.635 1271.91 644.294 1271.4 644.776C1270.89 645.257 1270.21 645.525 1269.51 645.523V645.523Z" fill="white" fill-opacity="0.1"/>
<path d="M1314.27 582.128C1255.69 582.13 1196.12 566.366 1133.77 534.538C1061.09 497.437 992.128 442.662 925.437 389.693C860.131 337.82 792.627 284.203 723.946 249.453C688.271 231.404 654.988 219.653 622.195 213.528C586.127 206.795 551.297 206.963 515.711 214.044C458.649 225.401 409.415 248.425 365.195 284.432C324.736 317.375 291.576 358.28 259.508 397.839C228.336 436.292 196.116 476.041 157.024 508.884C133.379 528.75 109.25 544.421 83.2591 556.793C82.6021 557.106 81.8478 557.145 81.162 556.902C80.4762 556.658 79.9152 556.153 79.6024 555.496C79.2895 554.839 79.2505 554.084 79.4938 553.399C79.7372 552.713 80.243 552.152 80.8999 551.839C106.466 539.67 130.211 524.246 153.494 504.683C192.185 472.179 224.237 432.637 255.235 394.397C287.491 354.608 320.832 313.479 361.73 280.177C406.661 243.591 456.679 220.198 514.64 208.662C550.924 201.442 586.435 201.27 623.202 208.135C656.514 214.356 690.277 226.27 726.423 244.558C795.601 279.56 863.328 333.353 928.825 385.376C995.329 438.198 1064.07 492.8 1136.27 529.651C1220.42 572.609 1299.35 585.925 1377.57 570.357C1451.1 555.724 1512.26 527.516 1564.56 484.121C1583.58 468.344 1601.91 450.064 1622.26 426.592C1622.74 426.058 1623.41 425.734 1624.12 425.689C1624.84 425.645 1625.55 425.884 1626.09 426.355C1626.63 426.825 1626.97 427.49 1627.03 428.207C1627.09 428.923 1626.86 429.634 1626.4 430.186C1605.86 453.891 1587.32 472.369 1568.07 488.343C1515.05 532.335 1453.08 560.923 1378.64 575.738C1357.26 579.992 1335.83 582.128 1314.27 582.129V582.128Z" fill="white" fill-opacity="0.1"/>
<path d="M2.73132 566.013C2.05198 566.01 1.39802 565.755 0.89593 565.297C0.393836 564.839 0.079272 564.212 0.0130706 563.536C-0.0531308 562.859 0.133734 562.183 0.537527 561.637C0.94132 561.09 1.53335 560.713 2.19914 560.578C54.3795 550.193 100.406 527.787 142.907 492.081C180.387 460.593 211.937 421.672 242.448 384.032C275.223 343.602 309.114 301.795 351.337 267.413C398.404 229.089 450.769 204.591 511.428 192.52C549.806 184.881 587.355 184.697 626.224 191.955C661.091 198.467 696.297 210.869 733.855 229.871C804.532 265.632 872.932 319.961 939.08 372.502C1004.94 424.808 1073.02 478.885 1143.75 514.991C1224.48 556.2 1299.91 569.031 1374.36 554.213C1397.31 549.643 1419.33 543.609 1439.78 536.276C1440.46 536.052 1441.2 536.102 1441.84 536.415C1442.49 536.729 1442.98 537.282 1443.22 537.956C1443.46 538.629 1443.43 539.371 1443.14 540.022C1442.84 540.673 1442.3 541.182 1441.63 541.44C1420.92 548.865 1398.65 554.972 1375.43 559.594C1299.72 574.662 1223.12 561.67 1141.26 519.878C1070.04 483.523 1001.73 429.272 935.68 376.809C869.735 324.428 801.556 270.275 731.378 234.767C694.291 216.004 659.566 203.763 625.216 197.348C587.049 190.221 550.18 190.402 512.498 197.9C452.74 209.793 401.157 233.922 354.802 271.668C313.019 305.69 279.309 347.273 246.71 387.488C216.037 425.328 184.318 464.456 146.436 496.282C103.21 532.598 56.3793 555.389 3.26899 565.959C3.08885 565.996 2.90871 566.013 2.73132 566.013V566.013Z" fill="white" fill-opacity="0.1"/>
<path d="M209.22 157.505C208.668 157.505 208.129 157.338 207.673 157.027C207.217 156.716 206.866 156.274 206.665 155.76C206.464 155.246 206.423 154.684 206.546 154.146C206.67 153.608 206.953 153.12 207.358 152.745C216.976 143.863 226.866 135.281 237.014 127.01C267.285 102.361 299.529 81.2152 332.847 64.1616C333.168 63.9927 333.519 63.8893 333.881 63.8571C334.242 63.825 334.606 63.8648 334.952 63.9743C335.298 64.0838 335.618 64.2608 335.895 64.4951C336.172 64.7293 336.4 65.0162 336.565 65.339C336.731 65.6619 336.83 66.0143 336.859 66.3759C336.887 66.7376 336.843 67.1012 336.73 67.4458C336.617 67.7904 336.436 68.1092 336.199 68.3836C335.962 68.658 335.673 68.8826 335.348 69.0445C302.371 85.9243 270.453 106.858 240.479 131.265C230.419 139.464 220.615 147.972 211.081 156.777C210.574 157.245 209.91 157.505 209.22 157.505Z" fill="white" fill-opacity="0.1"/>
<path d="M948.454 157.296C947.874 157.296 947.31 157.112 946.842 156.77C897.342 120.749 854.229 93.897 811.166 72.2659C758.355 45.7409 705.57 27.6321 654.279 18.4442C653.924 18.3807 653.586 18.2479 653.282 18.0535C652.979 17.8591 652.717 17.6069 652.511 17.3113C652.305 17.0156 652.16 16.6823 652.083 16.3304C652.006 15.9785 651.999 15.6148 652.062 15.2602C652.125 14.9054 652.258 14.5664 652.452 14.2628C652.646 13.9592 652.898 13.6969 653.194 13.491C653.49 13.2851 653.823 13.1396 654.176 13.0628C654.528 12.9861 654.892 12.9796 655.246 13.0437C707.058 22.3249 760.346 40.6002 813.629 67.3638C856.966 89.1321 900.322 116.133 950.072 152.335C950.54 152.676 950.889 153.156 951.067 153.707C951.246 154.259 951.245 154.852 951.066 155.403C950.886 155.954 950.537 156.434 950.068 156.774C949.598 157.114 949.033 157.297 948.454 157.296Z" fill="white" fill-opacity="0.1"/>
<path d="M1314.87 384.48C1297.01 384.48 1278.28 380.925 1258.21 373.766C1257.53 373.517 1256.98 373.01 1256.67 372.355C1256.37 371.7 1256.33 370.95 1256.57 370.269C1256.82 369.588 1257.32 369.03 1257.97 368.717C1258.62 368.404 1259.37 368.361 1260.06 368.597C1288.82 378.859 1314.65 381.487 1339.02 376.637C1379.52 368.575 1412.12 353.921 1438.69 331.839C1439.25 331.383 1439.96 331.166 1440.68 331.236C1441.4 331.306 1442.06 331.657 1442.53 332.213C1442.99 332.769 1443.21 333.485 1443.15 334.205C1443.09 334.924 1442.74 335.591 1442.19 336.058C1414.91 358.74 1381.51 373.773 1340.09 382.018C1331.85 383.657 1323.46 384.48 1314.87 384.48H1314.87Z" fill="white" fill-opacity="0.1"/>
<path d="M1538.35 219.743C1537.84 219.742 1537.34 219.599 1536.91 219.329C1536.47 219.059 1536.12 218.673 1535.9 218.215C1535.67 217.757 1535.58 217.244 1535.63 216.735C1535.68 216.227 1535.87 215.742 1536.18 215.335C1551.69 195.005 1570.69 170.989 1593.99 147.002C1603.98 136.704 1614.38 126.824 1625.19 117.386C1625.74 116.921 1626.45 116.691 1627.16 116.745C1627.88 116.799 1628.55 117.133 1629.02 117.675C1629.5 118.218 1629.74 118.924 1629.7 119.643C1629.65 120.362 1629.33 121.035 1628.8 121.517C1618.11 130.857 1607.81 140.634 1597.92 150.824C1574.83 174.606 1555.95 198.463 1540.54 218.664C1540.28 218.999 1539.95 219.272 1539.57 219.459C1539.19 219.646 1538.78 219.743 1538.35 219.743V219.743Z" fill="white" fill-opacity="0.1"/>
<path d="M1075.15 652.124C1074.73 652.124 1074.31 652.027 1073.91 651.822C1036.81 632.885 998.406 609.174 956.512 579.334C956.219 579.125 955.97 578.86 955.778 578.555C955.587 578.25 955.458 577.91 955.398 577.554C955.339 577.199 955.35 576.835 955.43 576.484C955.511 576.133 955.661 575.802 955.87 575.508C956.079 575.215 956.343 574.965 956.649 574.774C956.954 574.583 957.294 574.453 957.649 574.394C958.005 574.334 958.368 574.345 958.719 574.426C959.07 574.507 959.402 574.656 959.696 574.865C1001.37 604.547 1039.54 628.122 1076.4 646.937C1076.95 647.217 1077.39 647.673 1077.65 648.233C1077.91 648.793 1077.97 649.424 1077.83 650.023C1077.68 650.623 1077.34 651.156 1076.85 651.537C1076.37 651.918 1075.77 652.125 1075.15 652.124V652.124Z" fill="white" fill-opacity="0.1"/>
<path d="M817.063 471.077C816.468 471.077 815.87 470.885 815.367 470.489C768.655 433.693 714.621 392.31 664.5 366.951C648.292 358.751 633.515 352.64 619.326 348.27C612.092 346.042 604.927 344.259 598.028 342.971C597.317 342.834 596.689 342.42 596.281 341.822C595.873 341.223 595.719 340.487 595.852 339.774C595.985 339.062 596.394 338.431 596.991 338.02C597.587 337.608 598.322 337.449 599.035 337.578C606.138 338.904 613.508 340.737 620.941 343.027C635.43 347.489 650.489 353.714 666.976 362.056C717.549 387.642 771.842 429.218 818.762 466.18C819.21 466.533 819.537 467.016 819.697 467.564C819.857 468.111 819.843 468.695 819.656 469.233C819.469 469.772 819.118 470.239 818.654 470.57C818.189 470.9 817.633 471.077 817.063 471.077V471.077Z" fill="white" fill-opacity="0.1"/>
<path d="M203.921 638.024C203.337 638.025 202.768 637.839 202.297 637.494C201.826 637.149 201.477 636.662 201.302 636.105C201.126 635.548 201.133 634.95 201.321 634.397C201.51 633.844 201.869 633.366 202.348 633.031C214.438 624.593 226.498 615.332 238.195 605.508C286.53 564.898 322.608 520.394 357.497 477.356C377.62 452.532 398.421 426.872 419.778 405.292C423.281 401.753 426.76 398.365 430.123 395.218C435.132 390.531 440.096 386.181 444.875 382.289C445.439 381.829 446.163 381.612 446.887 381.686C447.61 381.76 448.275 382.119 448.735 382.683C449.194 383.247 449.411 383.97 449.337 384.694C449.263 385.418 448.905 386.083 448.341 386.542C443.657 390.356 438.789 394.623 433.871 399.225C430.411 402.469 427.013 405.779 423.678 409.152C402.512 430.538 381.798 456.092 361.766 480.804C326.708 524.05 290.462 568.761 241.723 609.708C229.904 619.638 217.712 628.999 205.488 637.53C205.029 637.852 204.482 638.025 203.921 638.024V638.024Z" fill="white" fill-opacity="0.1"/>
<path d="M169.363 221.935C168.834 221.935 168.317 221.782 167.873 221.495C167.429 221.207 167.078 220.798 166.861 220.315C166.645 219.833 166.572 219.298 166.653 218.776C166.733 218.253 166.962 217.765 167.314 217.37C194.503 186.788 219.953 162.131 247.406 139.774C315.803 84.0809 391.655 48.5289 479.3 31.0867C499.148 27.1365 519.208 24.4372 538.924 23.0638C539.644 23.0228 540.352 23.2673 540.893 23.7442C541.435 24.2212 541.766 24.8921 541.816 25.6119C541.867 26.3316 541.631 27.0421 541.161 27.5895C540.691 28.1369 540.024 28.4771 539.305 28.5364C519.82 29.8943 499.992 32.5626 480.37 36.4671C393.626 53.731 318.556 88.9144 250.872 144.028C223.651 166.195 198.403 190.657 171.414 221.015C171.157 221.305 170.841 221.537 170.487 221.695C170.134 221.854 169.75 221.936 169.363 221.935V221.935Z" fill="white" fill-opacity="0.1"/>
<path d="M1314.69 400.973C1284.6 400.973 1252.59 391.91 1216.09 373.276C1159.53 344.401 1097.79 295.365 1038.09 247.945C965.215 190.063 889.885 130.227 803.777 86.975C766.679 68.3404 729.533 53.9257 693.371 44.1288C693.017 44.0411 692.683 43.8834 692.39 43.665C692.097 43.4467 691.851 43.172 691.666 42.8572C691.481 42.5423 691.36 42.1937 691.311 41.8316C691.263 41.4696 691.287 41.1015 691.382 40.7489C691.478 40.3963 691.643 40.0663 691.868 39.7783C692.092 39.4903 692.372 39.2501 692.691 39.0718C693.01 38.8935 693.361 38.7806 693.724 38.7398C694.087 38.6991 694.455 38.7312 694.805 38.8344C731.322 48.7255 768.813 63.2728 806.241 82.072C892.853 125.579 968.41 185.592 1041.48 243.631C1100.99 290.901 1162.51 339.763 1218.59 368.391C1265.7 392.441 1304.99 400.19 1342.23 392.78C1385.49 384.17 1420.48 368.377 1449.21 344.496C1478.12 320.457 1503.78 286.066 1528.6 252.809C1560.76 209.707 1591.13 168.995 1636.02 129.781C1648.86 118.556 1662.26 108.128 1675.83 98.7882C1676.43 98.3755 1677.17 98.2179 1677.88 98.3499C1678.6 98.482 1679.23 98.8929 1679.65 99.4922C1680.06 100.092 1680.22 100.83 1680.08 101.546C1679.95 102.262 1679.54 102.895 1678.94 103.308C1665.54 112.529 1652.32 122.825 1639.63 133.913C1595.18 172.744 1564.98 213.228 1532.99 256.09C1507.99 289.604 1482.13 324.259 1452.71 348.716C1423.27 373.195 1387.48 389.369 1343.3 398.161C1333.88 400.037 1324.3 400.979 1314.69 400.973V400.973Z" fill="white" fill-opacity="0.1"/>
<path d="M1768.2 434.444C1767.7 434.444 1767.2 434.302 1766.76 434.035C1766.33 433.767 1765.98 433.385 1765.75 432.93C1765.53 432.475 1765.43 431.966 1765.47 431.459C1765.52 430.953 1765.7 430.468 1766.01 430.061C1788.51 399.901 1809.76 371.414 1830.96 352.894C1831.23 352.651 1831.54 352.463 1831.89 352.343C1832.23 352.222 1832.6 352.172 1832.96 352.193C1833.32 352.215 1833.68 352.308 1834 352.469C1834.33 352.629 1834.62 352.853 1834.86 353.127C1835.1 353.401 1835.28 353.72 1835.4 354.065C1835.51 354.41 1835.56 354.775 1835.53 355.138C1835.5 355.5 1835.4 355.854 1835.24 356.178C1835.07 356.502 1834.85 356.79 1834.57 357.025C1813.81 375.163 1792.73 403.422 1770.4 433.342C1770.15 433.684 1769.82 433.963 1769.43 434.154C1769.05 434.346 1768.63 434.445 1768.2 434.444V434.444Z" fill="white" fill-opacity="0.1"/>
<path d="M1712.83 425.262C1712.3 425.262 1711.79 425.111 1711.35 424.827C1710.9 424.543 1710.55 424.137 1710.34 423.659C1710.12 423.181 1710.04 422.651 1710.11 422.13C1710.19 421.61 1710.41 421.122 1710.75 420.725C1731.19 397.091 1741.17 384.364 1763.03 356.482C1766.75 351.735 1770.81 346.56 1775.31 340.83C1775.76 340.257 1776.42 339.887 1777.14 339.8C1777.86 339.714 1778.59 339.917 1779.16 340.367C1779.73 340.816 1780.1 341.475 1780.19 342.197C1780.28 342.92 1780.07 343.647 1779.62 344.219C1775.12 349.948 1771.07 355.121 1767.35 359.867C1746.09 386.974 1735.43 400.58 1714.91 424.313C1714.65 424.611 1714.33 424.85 1713.97 425.014C1713.61 425.178 1713.22 425.262 1712.83 425.262V425.262Z" fill="white" fill-opacity="0.1"/>
<path d="M1400.59 688.795C1399.91 688.79 1399.26 688.535 1398.76 688.077C1398.26 687.62 1397.94 686.993 1397.88 686.318C1397.81 685.642 1398 684.966 1398.4 684.42C1398.8 683.874 1399.39 683.496 1400.06 683.36C1475.95 668.257 1541.16 641.628 1599.43 601.952C1599.72 601.744 1600.06 601.598 1600.41 601.521C1600.77 601.445 1601.13 601.439 1601.49 601.505C1601.85 601.57 1602.19 601.706 1602.49 601.904C1602.8 602.102 1603.06 602.359 1603.26 602.658C1603.47 602.958 1603.61 603.296 1603.68 603.651C1603.75 604.006 1603.76 604.372 1603.69 604.728C1603.62 605.084 1603.48 605.423 1603.28 605.725C1603.08 606.027 1602.82 606.285 1602.51 606.486C1543.63 646.586 1477.75 673.492 1401.13 688.741C1400.95 688.777 1400.77 688.795 1400.59 688.795L1400.59 688.795Z" fill="white" fill-opacity="0.1"/>
<path d="M1171.17 674.416C1170.89 674.416 1170.61 674.373 1170.33 674.283C1141.16 664.889 1111.24 652.399 1081.39 637.162C998.451 594.825 924.861 536.375 853.696 479.85C792.928 431.587 730.121 381.704 671.929 352.263C646.134 339.212 622.95 330.88 601.049 326.79C579.675 322.801 559.118 322.885 538.201 327.047C537.495 327.17 536.769 327.013 536.177 326.608C535.586 326.202 535.177 325.582 535.037 324.879C534.897 324.176 535.038 323.447 535.429 322.846C535.82 322.245 536.431 321.822 537.13 321.666C558.745 317.365 579.982 317.276 602.055 321.397C624.475 325.584 648.141 334.079 674.407 347.368C733.096 377.061 796.125 427.119 857.079 475.53C928.064 531.911 1001.43 590.188 1083.89 632.275C1113.48 647.379 1143.12 659.756 1172.01 669.061C1172.63 669.261 1173.16 669.677 1173.51 670.234C1173.85 670.791 1173.98 671.452 1173.88 672.098C1173.78 672.744 1173.45 673.332 1172.95 673.757C1172.46 674.182 1171.82 674.416 1171.17 674.416V674.416Z" fill="white" fill-opacity="0.1"/>
<path d="M126.706 663.487C126.08 663.487 125.473 663.274 124.985 662.882C124.497 662.49 124.157 661.943 124.023 661.331C123.889 660.72 123.968 660.081 124.247 659.52C124.526 658.96 124.989 658.512 125.558 658.251C161.68 641.621 195.061 620.246 227.608 592.905C274.74 553.305 310.315 509.421 344.718 466.981C358.877 449.516 373.494 431.484 388.381 414.775C388.618 414.499 388.908 414.273 389.234 414.111C389.56 413.948 389.915 413.852 390.278 413.828C390.641 413.804 391.005 413.853 391.35 413.971C391.694 414.089 392.011 414.275 392.283 414.517C392.555 414.759 392.776 415.053 392.933 415.381C393.09 415.709 393.18 416.066 393.198 416.429C393.216 416.793 393.162 417.156 393.038 417.499C392.914 417.841 392.724 418.155 392.477 418.423C377.677 435.04 363.1 453.019 349.004 470.408C314.414 513.076 278.671 557.168 231.137 597.105C198.21 624.766 164.425 646.398 127.852 663.235C127.492 663.401 127.102 663.486 126.706 663.487V663.487Z" fill="white" fill-opacity="0.1"/>
<path d="M100.812 330.13C100.289 330.13 99.7769 329.98 99.3361 329.699C98.8954 329.417 98.5443 329.016 98.3242 328.541C98.1041 328.067 98.0243 327.539 98.094 327.021C98.1638 326.503 98.3803 326.015 98.718 325.616C108.181 314.42 117.943 302.377 127.384 290.731C164.897 244.453 203.685 196.605 257.799 152.539C324.062 98.5824 397.566 64.135 482.513 47.2296C531.432 37.4948 580.923 35.8709 629.608 42.4024C630.329 42.4992 630.982 42.8785 631.424 43.4568C631.865 44.0351 632.059 44.7651 631.962 45.4863C631.866 46.2074 631.486 46.8605 630.908 47.302C630.33 47.7435 629.6 47.9371 628.878 47.8404C580.791 41.3865 531.906 42.9941 483.584 52.6108C399.537 69.3371 326.816 103.415 261.265 156.793C207.589 200.502 168.983 248.126 131.648 294.182C122.188 305.854 112.407 317.918 102.909 329.158C102.651 329.463 102.33 329.708 101.968 329.876C101.606 330.044 101.211 330.131 100.812 330.13V330.13Z" fill="white" fill-opacity="0.1"/>
<path d="M1314.59 417.453C1281.91 417.453 1247.5 407.789 1208.61 387.936C1150.57 358.309 1088.17 308.749 1027.83 260.818C955.626 203.466 880.973 144.17 796.39 101.683C771.393 89.1284 746.3 78.4994 721.807 70.0924C721.119 69.8561 720.553 69.356 720.234 68.7023C719.914 68.0486 719.867 67.2948 720.104 66.6067C720.34 65.9185 720.84 65.3525 721.494 65.033C722.148 64.7135 722.901 64.6668 723.59 64.9031C748.314 73.3888 773.636 84.1147 798.852 96.7801C883.942 139.521 958.821 198.997 1031.23 256.514C1091.38 304.285 1153.56 353.672 1211.1 383.049C1261.69 408.872 1304.38 417.094 1345.44 408.924C1391.46 399.765 1428.84 382.832 1459.73 357.154C1490.14 331.869 1516.4 296.683 1541.79 262.655C1573.41 220.273 1603.28 180.242 1646.85 142.177C1654.5 135.484 1662.39 129.065 1670.5 122.932C1671.08 122.493 1671.81 122.303 1672.53 122.404C1673.25 122.504 1673.9 122.887 1674.34 123.467C1674.78 124.048 1674.97 124.779 1674.87 125.5C1674.77 126.22 1674.39 126.872 1673.81 127.31C1665.8 133.365 1658.01 139.701 1650.46 146.308C1607.33 183.99 1577.63 223.794 1546.19 265.934C1520.6 300.221 1494.15 335.672 1463.24 361.373C1431.63 387.649 1393.45 404.964 1346.51 414.305C1336 416.402 1325.31 417.457 1314.59 417.454V417.453Z" fill="white" fill-opacity="0.1"/>
<path d="M1313.53 681.016C1239.67 681.016 1165.52 661.63 1088.87 622.501C1007.4 580.914 934.464 522.983 863.932 466.961C802.538 418.199 739.054 367.779 679.36 337.577C652.153 323.811 627.525 314.989 604.069 310.609C580.598 306.228 558.001 306.324 534.988 310.904C494.114 319.038 458.973 335.429 427.554 361.014C395.02 387.506 365.121 424.389 336.206 460.057C309.698 492.754 282.314 526.536 249.594 558.242C249.336 558.492 249.03 558.69 248.695 558.822C248.36 558.955 248.002 559.02 247.642 559.015C247.282 559.009 246.926 558.932 246.596 558.789C246.265 558.646 245.966 558.439 245.715 558.181C245.464 557.922 245.267 557.616 245.134 557.282C245.002 556.947 244.936 556.589 244.942 556.228C244.948 555.868 245.024 555.513 245.167 555.182C245.31 554.851 245.517 554.552 245.776 554.301C278.258 522.824 305.538 489.173 331.92 456.631C361.034 420.716 391.115 383.61 424.089 356.76C456.219 330.596 492.144 313.835 533.918 305.523C557.627 300.804 580.903 300.704 605.077 305.216C629.05 309.693 654.159 318.676 681.838 332.681C742.028 363.135 805.735 413.733 867.345 462.664C937.667 518.519 1010.38 576.275 1091.37 617.615C1196.07 671.062 1295.99 687.288 1396.85 667.216C1486.88 649.299 1562.37 614.269 1627.63 560.126C1682.21 514.836 1718.1 466.732 1752.82 420.212C1766.52 401.85 1779.45 384.513 1792.52 369.127C1793 368.581 1793.67 368.243 1794.39 368.188C1795.11 368.134 1795.82 368.365 1796.37 368.833C1796.92 369.301 1797.27 369.968 1797.33 370.688C1797.39 371.408 1797.17 372.124 1796.7 372.679C1783.75 387.933 1770.86 405.202 1757.22 423.485C1722.31 470.271 1686.22 518.642 1631.13 564.349C1565.15 619.089 1488.87 654.497 1397.92 672.598C1369.75 678.203 1341.66 681.015 1313.53 681.016V681.016Z" fill="white" fill-opacity="0.1"/>
<path d="M142.3 305.567C141.782 305.566 141.274 305.419 140.836 305.143C140.398 304.866 140.047 304.471 139.824 304.003C139.601 303.535 139.516 303.014 139.577 302.499C139.638 301.984 139.844 301.498 140.171 301.095L140.233 301.02C148.709 290.562 157.477 279.748 166.372 269.054C182.616 249.524 196.52 233.755 210.124 219.429C210.371 219.163 210.668 218.949 210.999 218.799C211.329 218.649 211.686 218.566 212.048 218.555C212.411 218.544 212.772 218.605 213.111 218.734C213.45 218.863 213.759 219.058 214.022 219.308C214.285 219.558 214.496 219.857 214.643 220.189C214.789 220.521 214.868 220.878 214.876 221.241C214.883 221.604 214.819 221.964 214.686 222.302C214.553 222.639 214.354 222.947 214.102 223.207C200.582 237.444 186.756 253.126 170.59 272.562C161.717 283.23 152.961 294.03 144.494 304.475L144.433 304.552C144.175 304.869 143.85 305.125 143.481 305.301C143.112 305.477 142.708 305.567 142.299 305.567H142.3Z" fill="white" fill-opacity="0.1"/>
<path d="M1314.46 433.936C1279.22 433.936 1242.41 423.673 1201.13 402.597C1141.62 372.22 1078.56 322.134 1017.58 273.696C946.038 216.87 872.066 158.116 789.001 116.392C685.585 64.4478 586.732 48.8663 486.796 68.7546C426.004 80.8521 372.109 101.994 322.033 133.386C321.417 133.773 320.672 133.899 319.963 133.736C319.254 133.574 318.638 133.136 318.251 132.52C317.865 131.903 317.739 131.158 317.902 130.449C318.064 129.74 318.502 129.124 319.118 128.738C369.77 96.9849 424.267 75.6035 485.725 63.3733C586.907 43.2373 686.915 58.9751 791.464 111.489C875.035 153.466 949.232 212.401 1020.99 269.395C1081.76 317.67 1144.6 367.583 1203.62 397.71C1257.68 425.307 1303.77 434.002 1348.65 425.067C1367.67 421.282 1385.58 416.136 1401.9 409.772C1402.58 409.508 1403.34 409.523 1404 409.816C1404.67 410.108 1405.19 410.653 1405.46 411.331C1405.72 412.009 1405.7 412.764 1405.41 413.43C1405.12 414.096 1404.57 414.619 1403.9 414.883C1387.28 421.365 1369.05 426.601 1349.73 430.448C1338.11 432.768 1326.3 433.936 1314.46 433.936V433.936Z" fill="white" fill-opacity="0.1"/>
<path d="M1497.5 350.639C1496.97 350.639 1496.44 350.482 1495.99 350.186C1495.54 349.891 1495.19 349.47 1494.98 348.977C1494.77 348.483 1494.71 347.939 1494.8 347.41C1494.9 346.882 1495.14 346.393 1495.52 346.004C1516.86 323.586 1536.24 297.613 1554.98 272.495C1586.07 230.833 1615.43 191.483 1657.68 154.571C1676.45 138.163 1696.39 123.713 1716.94 111.62C1717.25 111.435 1717.6 111.313 1717.95 111.262C1718.31 111.21 1718.67 111.23 1719.02 111.32C1719.38 111.41 1719.7 111.568 1719.99 111.785C1720.28 112.002 1720.52 112.274 1720.71 112.586C1720.89 112.897 1721.01 113.242 1721.06 113.6C1721.11 113.958 1721.09 114.322 1721 114.672C1720.91 115.021 1720.75 115.35 1720.53 115.637C1720.31 115.925 1720.04 116.167 1719.72 116.348C1699.47 128.268 1679.81 142.519 1661.29 158.703C1619.48 195.231 1590.29 234.356 1559.38 275.776C1540.54 301.023 1521.06 327.13 1499.49 349.788C1498.95 350.354 1498.23 350.638 1497.5 350.638V350.639Z" fill="white" fill-opacity="0.1"/>
<path d="M1696.09 469.413C1695.56 469.413 1695.05 469.259 1694.6 468.971C1694.16 468.682 1693.81 468.271 1693.59 467.787C1693.37 467.304 1693.3 466.768 1693.38 466.244C1693.47 465.721 1693.7 465.233 1694.05 464.838C1713.77 442.856 1725.52 428.082 1736.87 413.794C1739.26 410.791 1741.65 407.793 1744.04 404.801C1750.61 396.626 1756.34 389.105 1761.88 381.831C1772.9 367.367 1782.42 354.877 1794.7 342.099C1795.21 341.574 1795.9 341.272 1796.63 341.257C1797.36 341.243 1798.06 341.518 1798.58 342.023C1799.11 342.527 1799.41 343.219 1799.43 343.947C1799.44 344.675 1799.16 345.378 1798.66 345.903C1786.59 358.452 1777.16 370.828 1766.24 385.158C1760.68 392.457 1754.93 400.005 1748.32 408.236C1745.93 411.217 1743.57 414.188 1741.17 417.208C1729.76 431.559 1717.96 446.398 1698.14 468.501C1697.88 468.789 1697.56 469.018 1697.21 469.176C1696.86 469.333 1696.48 469.414 1696.09 469.413V469.413Z" fill="white" fill-opacity="0.1"/>
<path d="M169.437 601.772C168.849 601.772 168.276 601.584 167.803 601.234C167.33 600.884 166.982 600.392 166.81 599.829C166.639 599.266 166.652 598.663 166.849 598.109C167.047 597.555 167.417 597.079 167.905 596.751C180.938 588.002 193.901 578.227 206.434 567.697C251.153 530.126 285.725 487.477 319.159 446.233C348.781 409.693 379.405 371.918 413.697 343.996C447.959 316.095 486.234 298.23 530.705 289.379C556.513 284.245 581.827 284.131 608.098 289.036C633.631 293.805 660.182 303.277 689.269 317.995C717.788 332.423 749.72 352.614 786.891 379.721C787.184 379.932 787.432 380.2 787.621 380.508C787.81 380.815 787.937 381.157 787.993 381.514C788.05 381.871 788.036 382.235 787.951 382.586C787.867 382.938 787.714 383.269 787.501 383.561C787.288 383.853 787.02 384.099 786.711 384.287C786.403 384.475 786.06 384.6 785.703 384.655C785.346 384.711 784.981 384.695 784.631 384.609C784.28 384.523 783.949 384.368 783.658 384.154C746.729 357.223 715.044 337.184 686.793 322.89C658.175 308.41 632.104 299.101 607.09 294.43C581.52 289.655 556.885 289.764 531.775 294.76C488.204 303.432 450.714 320.929 417.161 348.251C383.31 375.815 352.867 413.365 323.426 449.681C289.825 491.133 255.084 533.989 209.962 571.898C197.28 582.554 184.159 592.448 170.963 601.306C170.512 601.61 169.981 601.772 169.437 601.773V601.772Z" fill="white" fill-opacity="0.1"/>
<path d="M1314.33 450.42C1276.53 450.42 1237.32 439.554 1193.64 417.256C1132.67 386.133 1068.95 335.523 1007.34 286.58C936.452 230.277 863.155 172.058 781.613 131.1C681.598 80.864 586.214 65.7508 490.009 84.8975C411.36 100.55 343.335 132.417 282.05 182.321C231.02 223.875 193.502 270.157 157.22 314.916C138.334 338.213 120.495 360.217 101.947 379.79C101.445 380.312 100.757 380.615 100.033 380.632C99.3091 380.649 98.6079 380.379 98.0822 379.88C97.5566 379.382 97.2493 378.697 97.2272 377.973C97.2052 377.249 97.4702 376.546 97.9645 376.017C116.367 356.597 134.141 334.673 152.957 311.461C189.416 266.485 227.116 219.978 278.586 178.066C340.582 127.584 409.39 95.3482 488.937 79.5162C586.389 60.1217 682.928 75.3923 784.075 126.197C866.124 167.41 939.646 225.808 1010.75 282.284C1072.16 331.058 1135.65 381.496 1196.14 412.37C1253.67 441.74 1303.16 450.905 1351.87 441.21C1403.4 430.954 1445.57 411.739 1480.78 382.469C1514.19 354.692 1541.63 317.92 1568.16 282.358C1598.72 241.402 1627.58 202.729 1668.51 166.967C1690.23 147.982 1713.55 131.772 1737.82 118.785C1738.46 118.462 1739.2 118.401 1739.88 118.617C1740.57 118.833 1741.14 119.307 1741.48 119.939C1741.81 120.571 1741.89 121.31 1741.69 121.998C1741.49 122.687 1741.03 123.27 1740.41 123.622C1716.51 136.413 1693.53 152.387 1672.12 171.098C1631.63 206.476 1602.94 244.923 1572.57 285.627C1545.83 321.457 1518.19 358.496 1484.28 386.687C1448.36 416.557 1405.39 436.151 1352.94 446.591C1340.15 449.136 1327.32 450.42 1314.33 450.42V450.42Z" fill="white" fill-opacity="0.1"/>
<path d="M1314.19 466.904C1273.83 466.904 1232.24 455.437 1186.16 431.916C1123.72 400.044 1059.35 348.915 997.099 299.469C926.868 243.685 854.246 186.002 774.225 145.809C677.612 97.2821 585.696 82.6371 493.221 101.04C417.268 116.155 351.594 146.918 292.444 195.085C242.737 235.56 205.763 281.171 170.006 325.281C141.262 360.737 114.114 394.225 83.6888 419.931C64.6647 436.005 45.4988 447.998 25.0957 456.596C24.7637 456.736 24.4074 456.809 24.0471 456.811C23.6868 456.813 23.3296 456.744 22.9959 456.608C22.6622 456.473 22.3585 456.272 22.1022 456.019C21.8459 455.766 21.642 455.465 21.5021 455.133C21.3622 454.801 21.2891 454.444 21.2869 454.084C21.2847 453.724 21.3535 453.366 21.4894 453.033C21.6252 452.699 21.8255 452.395 22.0787 452.139C22.3319 451.883 22.6331 451.679 22.9652 451.539C42.8489 443.16 61.5539 431.45 80.1482 415.74C110.177 390.368 137.168 357.076 165.743 321.828C201.677 277.5 238.833 231.665 288.979 190.83C348.84 142.085 415.299 110.954 492.151 95.6591C585.868 77.008 678.941 91.8076 776.687 140.906C857.214 181.354 930.062 239.216 1000.51 295.173C1062.55 344.451 1126.7 395.407 1188.65 427.03C1249.66 458.173 1302.55 467.808 1355.08 457.354C1409.37 446.549 1453.93 426.194 1491.3 395.127C1526.21 366.098 1554.25 328.531 1581.35 292.2C1611.37 251.967 1639.72 213.974 1679.34 179.363C1692.81 167.591 1706.97 156.89 1721.41 147.558C1721.72 147.362 1722.06 147.228 1722.41 147.164C1722.76 147.099 1723.13 147.104 1723.48 147.18C1723.83 147.256 1724.17 147.4 1724.46 147.605C1724.76 147.81 1725.01 148.071 1725.21 148.373C1725.4 148.676 1725.54 149.014 1725.6 149.369C1725.67 149.723 1725.66 150.087 1725.59 150.439C1725.51 150.791 1725.37 151.125 1725.16 151.421C1724.96 151.718 1724.69 151.971 1724.39 152.166C1710.16 161.356 1696.22 171.896 1682.95 183.494C1643.77 217.723 1615.59 255.488 1585.76 295.472C1558.45 332.068 1530.22 369.9 1494.8 399.345C1456.71 431.013 1411.36 451.747 1356.15 462.734C1342.22 465.507 1328.28 466.904 1314.19 466.904H1314.19Z" fill="white" fill-opacity="0.1"/>
<path d="M1313.91 631.57C1247.68 631.57 1180.82 613.998 1111.32 578.518C1034.24 539.174 963.297 482.824 894.688 428.329C831.327 378.005 765.836 325.989 701.654 293.515C670.21 277.607 641.255 267.321 613.132 262.068C583.363 256.512 554.65 256.642 525.35 262.474C476.384 272.218 434.195 291.926 396.373 322.724C359.88 352.44 328.351 391.331 297.861 428.941C265.228 469.199 231.496 510.812 188.788 546.693C158.377 572.241 127.071 591.84 93.078 606.613C92.7474 606.757 92.3919 606.834 92.0315 606.84C91.6712 606.847 91.3132 606.782 90.9779 606.65C90.6427 606.517 90.3367 606.321 90.0775 606.07C89.8184 605.82 89.6111 605.521 89.4674 605.19C89.3238 604.86 89.2467 604.504 89.2405 604.144C89.2343 603.783 89.2992 603.425 89.4313 603.09C89.5635 602.755 89.7604 602.449 90.0108 602.19C90.2612 601.931 90.5602 601.723 90.8907 601.58C124.391 587.022 155.26 567.695 185.259 542.492C227.565 506.949 261.13 465.543 293.588 425.5C324.265 387.66 355.974 348.544 392.909 318.469C431.442 287.093 474.413 267.016 524.279 257.093C554.277 251.123 583.67 250.987 614.139 256.675C642.78 262.025 672.217 272.472 704.131 288.62C768.811 321.345 834.525 373.538 898.076 424.014C966.499 478.36 1037.23 534.537 1113.82 573.633C1208.24 621.836 1297.67 636.606 1387.21 618.786C1468.99 602.511 1537.32 570.892 1596.1 522.124C1646.16 480.59 1680.26 434.88 1713.24 390.677C1734.31 362.448 1754.19 335.798 1775.98 314.195C1776.23 313.938 1776.54 313.735 1776.87 313.596C1777.2 313.457 1777.56 313.386 1777.93 313.386C1778.29 313.386 1778.65 313.458 1778.98 313.597C1779.31 313.736 1779.62 313.94 1779.87 314.197C1780.13 314.454 1780.33 314.759 1780.46 315.094C1780.6 315.429 1780.67 315.788 1780.67 316.15C1780.66 316.512 1780.59 316.87 1780.45 317.203C1780.31 317.536 1780.1 317.837 1779.84 318.09C1758.35 339.405 1738.58 365.897 1717.65 393.943C1684.47 438.419 1650.16 484.394 1599.6 526.345C1540.1 575.712 1470.98 607.71 1388.28 624.168C1363.51 629.097 1338.75 631.57 1313.91 631.57V631.57Z" fill="white" fill-opacity="0.1"/>
<path d="M1314.04 483.39C1271.14 483.39 1227.15 471.322 1178.67 446.577C1114.77 413.958 1049.75 362.308 986.862 312.359C917.286 257.094 845.339 199.949 766.836 160.518C673.624 113.698 585.174 99.5243 496.435 117.184C423.182 131.762 359.856 161.418 302.837 207.847C254.456 247.243 218.026 292.182 182.795 335.643C153.547 371.721 125.925 405.795 94.3115 432.505C85.6868 439.793 76.8756 446.404 68.1248 452.155C67.8238 452.353 67.4867 452.49 67.1328 452.558C66.779 452.625 66.4153 452.622 66.0625 452.549C65.7096 452.477 65.3747 452.335 65.0766 452.132C64.7786 451.93 64.5234 451.671 64.3255 451.37C64.1276 451.069 63.9909 450.732 63.9233 450.378C63.8556 450.024 63.8584 449.66 63.9313 449.308C64.0043 448.955 64.146 448.62 64.3484 448.322C64.5508 448.024 64.8099 447.768 65.1109 447.571C73.6789 441.939 82.3127 435.46 90.7709 428.313C121.989 401.937 149.453 368.059 178.529 332.191C213.939 288.511 250.552 243.348 299.373 203.592C357.103 156.585 421.211 126.56 495.364 111.803C585.345 93.8925 674.952 108.226 769.3 155.615C848.309 195.3 920.48 252.625 990.275 308.063C1052.95 357.844 1117.76 409.32 1181.17 441.69C1245.65 474.605 1301.93 484.712 1358.29 473.497C1415.34 462.143 1462.29 440.648 1501.82 407.784C1538.24 377.508 1566.86 339.147 1594.54 302.05C1624.03 262.531 1651.87 225.219 1690.17 191.757C1720.22 165.497 1752.18 145.918 1787.88 131.904C1788.55 131.638 1789.31 131.652 1789.98 131.943C1790.64 132.234 1791.17 132.778 1791.43 133.455C1791.7 134.132 1791.68 134.887 1791.39 135.554C1791.1 136.221 1790.56 136.745 1789.88 137.011C1754.78 150.791 1723.35 170.05 1693.78 195.889C1655.92 228.966 1628.25 266.052 1598.95 305.315C1571.07 342.685 1542.24 381.311 1505.33 412.002C1465.08 445.467 1417.33 467.342 1359.36 478.878C1344.29 481.877 1329.23 483.39 1314.04 483.39V483.39Z" fill="white" fill-opacity="0.1"/>
<path d="M1314.03 615.09C1250.35 615.09 1185.92 598.12 1118.81 563.858C1043.19 525.258 972.902 469.434 904.933 415.448C840.934 364.615 774.769 312.062 709.084 278.828C676.232 262.207 645.833 251.432 616.154 245.889C584.284 239.939 553.53 240.083 522.137 246.331C470.472 256.612 425.935 277.426 385.98 309.959C348.164 340.753 316.091 380.317 285.074 418.578C252.933 458.229 219.703 499.222 178.201 534.09C170.645 540.443 162.864 546.522 154.873 552.317C154.581 552.528 154.251 552.68 153.9 552.764C153.55 552.847 153.186 552.861 152.831 552.804C152.475 552.747 152.134 552.621 151.827 552.432C151.52 552.244 151.253 551.996 151.042 551.704C150.831 551.413 150.679 551.082 150.595 550.732C150.512 550.381 150.498 550.018 150.555 549.662C150.612 549.306 150.738 548.965 150.927 548.658C151.115 548.351 151.363 548.085 151.655 547.873C159.539 542.155 167.216 536.157 174.671 529.89C215.772 495.359 248.833 454.573 280.806 415.129C312.005 376.645 344.26 336.857 382.516 305.704C423.182 272.591 468.501 251.41 521.066 240.949C553.158 234.563 584.59 234.414 617.16 240.495C647.359 246.135 678.238 257.072 711.562 273.933C777.744 307.418 844.132 360.148 908.334 411.142C976.104 464.97 1046.17 520.621 1121.3 558.971C1212.3 605.427 1298.23 619.71 1383.99 602.643C1463.02 586.916 1528.96 556.434 1585.58 509.456C1634.14 469.169 1667.65 424.254 1700.06 380.818C1725.25 347.066 1749.03 315.186 1776.81 290.918C1784.76 283.973 1793.02 277.709 1801.37 272.301C1801.98 271.905 1802.72 271.768 1803.43 271.92C1804.14 272.071 1804.76 272.5 1805.16 273.11C1805.56 273.721 1805.69 274.464 1805.54 275.175C1805.39 275.887 1804.96 276.509 1804.35 276.905C1796.22 282.172 1788.17 288.276 1780.42 295.05C1753.08 318.934 1729.47 350.587 1704.46 384.099C1671.86 427.793 1638.15 472.974 1589.09 513.679C1531.75 561.255 1465.01 592.115 1385.07 608.024C1361.43 612.729 1337.78 615.089 1314.03 615.09V615.09Z" fill="white" fill-opacity="0.1"/>
<path d="M1313.89 499.877C1268.44 499.877 1222.07 487.208 1171.19 461.236C1105.83 427.87 1040.14 375.7 976.625 325.247C907.687 270.492 836.426 213.891 759.449 175.226C669.636 130.115 584.655 116.411 499.647 133.328C429.092 147.369 368.116 175.92 313.23 220.612C266.167 258.933 230.282 303.201 195.578 346.011C175.039 371.348 155.643 395.275 134.788 416.913C124.515 427.572 114.75 436.784 104.934 445.077C104.377 445.538 103.661 445.76 102.941 445.696C102.221 445.632 101.556 445.286 101.09 444.734C100.623 444.182 100.394 443.468 100.45 442.748C100.507 442.027 100.846 441.358 101.394 440.886C111.065 432.715 120.697 423.629 130.837 413.106C151.529 391.636 170.852 367.799 191.311 342.561C226.196 299.53 262.263 255.038 309.765 216.357C365.361 171.086 427.122 142.166 498.576 127.946C584.828 110.781 670.966 124.643 761.911 170.324C839.395 209.242 910.881 266.022 980.015 320.932C1043.35 371.236 1108.81 423.233 1173.68 456.35C1241.64 491.038 1301.32 501.616 1361.51 489.64C1421.31 477.738 1470.65 455.102 1512.34 420.441C1550.25 388.922 1579.47 349.769 1607.73 311.905C1636.68 273.105 1664.01 236.468 1701 204.152C1721.75 186.021 1744.17 170.822 1767.65 158.975C1768.3 158.647 1769.06 158.591 1769.75 158.819C1770.44 159.046 1771.01 159.539 1771.34 160.188C1771.67 160.838 1771.72 161.591 1771.5 162.282C1771.27 162.973 1770.78 163.546 1770.13 163.873C1747.05 175.514 1725.01 190.455 1704.61 208.284C1668.06 240.216 1640.89 276.627 1612.13 315.174C1583.68 353.307 1554.26 392.725 1515.85 424.66C1473.44 459.92 1423.3 482.936 1362.58 495.022C1346.36 498.249 1330.18 499.877 1313.89 499.877V499.877Z" fill="white" fill-opacity="0.1"/>
<path d="M1314.15 598.609C1253.02 598.612 1191.02 582.245 1126.29 549.197C1052.13 511.346 982.509 456.043 915.177 402.563C850.532 351.217 783.697 298.132 716.516 264.14C682.253 246.805 650.414 235.543 619.174 229.709C585.205 223.365 552.413 223.523 518.924 230.187C464.56 241.006 417.674 262.925 375.587 297.196C336.447 329.067 303.829 369.305 272.284 408.217C240.633 447.262 207.906 487.633 167.612 521.486C133.819 549.877 98.5379 570.458 59.7535 584.406C59.0703 584.646 58.3198 584.607 57.6658 584.296C57.0117 583.985 56.5072 583.428 56.2621 582.747C56.0171 582.065 56.0515 581.314 56.3578 580.658C56.6641 580.002 57.2175 579.493 57.8973 579.244C96.0608 565.518 130.794 545.252 164.083 517.286C203.975 483.771 236.534 443.606 268.021 404.765C299.741 365.632 332.543 325.17 372.123 292.94C414.921 258.091 462.59 235.804 517.854 224.806C552.041 218.002 585.513 217.841 620.182 224.314C651.939 230.244 684.26 241.671 718.992 259.244C786.672 293.488 853.729 346.749 918.579 398.257C985.71 451.578 1055.12 506.707 1128.78 544.31C1216.36 589.017 1298.79 602.818 1380.78 586.499C1457.06 571.318 1520.61 541.974 1575.07 496.787C1622.12 457.751 1655.04 413.636 1686.87 370.974C1712.6 336.497 1736.89 303.933 1765.98 278.521C1771.93 273.322 1778.06 268.46 1784.19 264.072C1784.79 263.659 1785.52 263.497 1786.23 263.619C1786.94 263.742 1787.57 264.14 1787.99 264.727C1788.41 265.314 1788.58 266.043 1788.47 266.755C1788.36 267.468 1787.97 268.107 1787.39 268.534C1781.39 272.82 1775.41 277.57 1769.59 282.653C1740.94 307.681 1716.81 340.018 1691.27 374.255C1659.24 417.175 1626.13 461.556 1578.58 501.009C1523.4 546.793 1459.05 576.517 1381.85 591.881C1359.35 596.359 1336.8 598.607 1314.15 598.608V598.609Z" fill="white" fill-opacity="0.1"/>
<path d="M1313.74 516.364C1265.75 516.364 1216.99 503.094 1163.71 475.897C1096.88 441.781 1030.54 389.089 966.38 338.131C898.115 283.909 827.526 227.841 752.06 189.935C665.647 146.533 584.135 133.297 502.86 149.471C435.004 162.976 376.375 190.42 323.623 233.376C277.884 270.62 242.542 314.216 208.364 356.376C178.117 393.689 149.548 428.933 115.557 457.651C97.5301 472.881 79.5585 484.962 60.6157 494.584C59.9674 494.909 59.2168 494.964 58.5279 494.737C57.839 494.51 57.268 494.02 56.9397 493.373C56.6114 492.727 56.5526 491.976 56.776 491.286C56.9995 490.596 57.4871 490.023 58.1322 489.692C76.6909 480.265 94.3169 468.413 112.016 453.459C145.611 425.076 174.022 390.027 204.102 352.921C238.456 310.544 273.979 266.725 320.158 229.122C373.622 185.587 433.034 157.774 501.789 144.089C584.308 127.669 666.978 141.059 754.523 185.032C830.495 223.192 901.309 279.439 969.793 333.835C1033.74 384.625 1099.86 437.145 1166.2 471.01C1237.63 507.472 1300.71 518.523 1364.72 505.783C1427.28 493.332 1479.01 469.556 1522.87 433.098C1562.28 400.327 1592.09 360.382 1620.91 321.751C1649.33 283.673 1676.16 247.712 1711.83 216.547C1735.95 195.469 1761.33 179.239 1789.41 166.933C1789.74 166.783 1790.1 166.7 1790.46 166.689C1790.83 166.678 1791.19 166.739 1791.53 166.869C1791.87 166.999 1792.18 167.195 1792.44 167.445C1792.7 167.696 1792.91 167.997 1793.06 168.33C1793.21 168.662 1793.28 169.021 1793.29 169.384C1793.3 169.747 1793.23 170.108 1793.1 170.446C1792.96 170.783 1792.76 171.091 1792.51 171.35C1792.25 171.61 1791.95 171.816 1791.62 171.958C1764.05 184.037 1739.13 199.974 1715.44 220.679C1680.21 251.46 1653.55 287.194 1625.32 325.027C1596.3 363.92 1566.29 404.131 1526.37 437.317C1481.8 474.374 1429.27 498.53 1365.79 511.164C1348.42 514.621 1331.13 516.365 1313.74 516.365V516.364Z" fill="white" fill-opacity="0.1"/>
<path d="M1313.58 532.853C1263.05 532.853 1211.9 518.98 1156.22 490.557C1087.93 455.694 1020.93 402.481 956.143 351.021C820.043 242.92 679.314 131.141 506.073 165.614C440.915 178.581 384.634 204.922 334.016 246.14C289.599 282.307 254.804 325.229 221.152 366.74C185.612 410.582 152.056 451.977 109.068 483.78C108.482 484.195 107.757 484.364 107.048 484.25C106.339 484.137 105.703 483.75 105.276 483.173C104.849 482.596 104.665 481.874 104.764 481.163C104.863 480.452 105.236 479.808 105.805 479.369C148.233 447.98 181.576 406.849 216.876 363.302C250.717 321.558 285.695 278.41 330.551 241.886C381.881 200.088 438.944 173.379 505.003 160.233C680.732 125.263 822.478 237.845 959.557 346.724C1024.13 398.017 1090.91 451.057 1158.72 485.67C1233.62 523.906 1300.1 535.425 1367.93 521.926C1513.74 492.909 1574.93 410.905 1634.1 331.6C1661.98 294.24 1688.3 258.958 1722.66 228.942C1734.52 218.577 1747.03 209.24 1759.84 201.191C1760.46 200.814 1761.2 200.695 1761.9 200.86C1762.6 201.024 1763.21 201.46 1763.6 202.071C1763.98 202.682 1764.11 203.421 1763.95 204.126C1763.79 204.83 1763.37 205.445 1762.76 205.836C1750.19 213.733 1737.92 222.897 1726.27 233.075C1692.35 262.706 1666.2 297.761 1638.51 334.875C1578.7 415.016 1516.87 497.88 1369 527.308C1350.49 530.993 1332.07 532.853 1313.58 532.853V532.853Z" fill="white" fill-opacity="0.1"/>
<path d="M24.0315 456.812C23.3976 456.813 22.783 456.595 22.2921 456.194C21.8012 455.793 21.4642 455.234 21.3386 454.613C21.213 453.992 21.3064 453.346 21.6029 452.786C21.8994 452.226 22.3808 451.785 22.9653 451.54C42.8489 443.16 61.554 431.451 80.1483 415.74C107.579 392.564 131.958 363.419 158.717 330.489C159.181 329.942 159.841 329.599 160.555 329.533C161.27 329.467 161.981 329.684 162.538 330.136C163.094 330.588 163.452 331.241 163.534 331.953C163.615 332.666 163.415 333.382 162.975 333.949C136.04 367.099 111.483 396.448 83.6889 419.932C64.6647 436.005 45.4989 447.998 25.0958 456.596C24.7483 456.742 24.3862 456.812 24.0315 456.812V456.812Z" fill="white" fill-opacity="0.1"/>
<path d="M1314.05 549.267C1295.07 549.267 1276.01 547.41 1256.59 543.698C1221.65 537.017 1186.38 524.43 1148.74 505.216C1078.98 469.608 1011.33 415.874 945.905 363.909C879.325 311.026 810.478 256.342 738.808 220.08C700.31 200.601 664.142 187.874 628.238 181.169C587.971 173.648 549.06 173.842 509.287 181.757C369.793 209.519 300.72 294.723 233.925 377.122C179.269 444.545 127.644 508.227 41.2469 538.594C40.906 538.718 40.5439 538.773 40.1815 538.756C39.8191 538.739 39.4637 538.651 39.1357 538.496C38.8078 538.341 38.5139 538.122 38.271 537.853C38.0282 537.583 37.8412 537.268 37.7208 536.926C37.6005 536.584 37.5493 536.221 37.5701 535.859C37.5909 535.497 37.6833 535.142 37.842 534.816C38.0007 534.49 38.2225 534.198 38.4946 533.958C38.7667 533.718 39.0837 533.535 39.4272 533.418C124.36 503.567 175.509 440.469 229.662 373.667C297.072 290.511 366.778 204.525 508.216 176.376C548.687 168.32 588.277 168.125 629.246 175.775C665.667 182.577 702.316 195.468 741.285 215.184C813.453 251.699 882.523 306.559 949.317 359.612C1014.53 411.41 1081.96 464.97 1151.23 500.33C1188.4 519.304 1223.2 531.727 1257.62 538.309C1296.17 545.679 1333.3 545.602 1371.14 538.071C1491.31 514.155 1554.79 455.438 1605.49 395.548C1612.69 387.048 1616.43 382.442 1624.55 370.927C1670.64 305.641 1709.57 260.294 1743.55 232.3C1774 207.214 1798.26 197.648 1822.48 189.303C1823.16 189.077 1823.91 189.13 1824.55 189.45C1825.2 189.771 1825.69 190.332 1825.93 191.014C1826.16 191.696 1826.12 192.443 1825.81 193.094C1825.5 193.744 1824.94 194.245 1824.26 194.49C1781.87 209.099 1733.82 225.658 1629.04 374.092C1620.78 385.785 1616.99 390.462 1609.68 399.093C1587.95 424.757 1557.69 457.785 1516.14 485.626C1474.46 513.557 1427.38 532.472 1372.22 543.451C1352.73 547.328 1333.44 549.267 1314.05 549.267V549.267Z" fill="white" fill-opacity="0.1"/>
<path d="M91.9852 606.84C91.3539 606.841 90.7416 606.625 90.2515 606.227C89.7614 605.829 89.4236 605.274 89.295 604.656C89.1664 604.038 89.2549 603.394 89.5456 602.834C89.8363 602.274 90.3114 601.831 90.8907 601.58C124.391 587.022 155.259 567.695 185.259 542.492C227.565 506.949 261.129 465.543 293.588 425.501C324.264 387.66 355.974 348.544 392.909 318.469C410.516 304.131 429.395 291.96 449.021 282.292C449.344 282.131 449.696 282.036 450.057 282.011C450.417 281.986 450.779 282.033 451.122 282.149C451.464 282.264 451.78 282.446 452.052 282.684C452.324 282.922 452.546 283.212 452.705 283.536C452.865 283.86 452.959 284.213 452.982 284.573C453.005 284.934 452.956 285.296 452.839 285.637C452.722 285.979 452.538 286.294 452.299 286.565C452.06 286.836 451.769 287.056 451.444 287.215C432.19 296.7 413.661 308.646 396.373 322.723C359.88 352.441 328.351 391.331 297.861 428.941C265.228 469.199 231.496 510.812 188.788 546.693C158.377 572.241 127.071 591.84 93.0779 606.613C92.7213 606.767 92.3501 606.84 91.9852 606.84V606.84Z" fill="white" fill-opacity="0.1"/>
<path d="M59.3759 494.883C58.7588 494.884 58.1594 494.677 57.6745 494.295C57.1897 493.913 56.8477 493.379 56.7038 492.779C56.5599 492.179 56.6225 491.548 56.8816 490.988C57.1406 490.428 57.5809 489.971 58.1314 489.692C76.691 480.265 94.317 468.414 112.017 453.459C145.612 425.076 174.023 390.027 204.102 352.921C238.456 310.544 273.979 266.724 320.158 229.121C373.622 185.587 433.035 157.774 501.789 144.09C517.825 140.898 534.09 138.812 550.13 137.891C550.854 137.853 551.564 138.103 552.104 138.587C552.645 139.07 552.971 139.748 553.013 140.472C553.055 141.196 552.808 141.907 552.327 142.45C551.846 142.993 551.169 143.323 550.446 143.368C534.658 144.275 518.647 146.329 502.86 149.471C435.004 162.976 376.375 190.42 323.623 233.376C277.884 270.62 242.543 314.216 208.364 356.376C178.117 393.689 149.548 428.933 115.557 457.651C97.5302 472.881 79.5586 484.962 60.6158 494.584C60.218 494.786 59.7937 494.883 59.3759 494.883V494.883Z" fill="white" fill-opacity="0.1"/>
<path d="M1158.1 337.943C1157.55 337.943 1157.02 337.779 1156.56 337.471C1117.56 311.065 1077.15 278.973 1038.08 247.939C965.215 190.062 889.885 130.227 803.777 86.975C766.679 68.3404 729.533 53.9257 693.371 44.1288C693.021 44.0371 692.692 43.8768 692.404 43.6574C692.116 43.4379 691.874 43.1635 691.693 42.8501C691.511 42.5367 691.393 42.1905 691.346 41.8314C691.299 41.4722 691.324 41.1074 691.419 40.7578C691.513 40.4082 691.676 40.0808 691.898 39.7946C692.12 39.5083 692.396 39.2688 692.711 39.0899C693.026 38.911 693.374 38.7963 693.733 38.7523C694.093 38.7083 694.457 38.7359 694.806 38.8335C731.322 48.7255 768.813 63.2728 806.241 82.072C892.853 125.579 968.41 185.592 1041.48 243.631C1080.49 274.613 1120.8 306.638 1159.64 332.927C1160.13 333.256 1160.49 333.733 1160.69 334.287C1160.89 334.841 1160.9 335.443 1160.73 336.005C1160.55 336.566 1160.2 337.058 1159.73 337.407C1159.26 337.756 1158.69 337.943 1158.1 337.943V337.943Z" fill="white" fill-opacity="0.1"/>
<path d="M59.3759 494.883C58.7588 494.884 58.1594 494.677 57.6745 494.295C57.1897 493.913 56.8477 493.379 56.7038 492.779C56.5599 492.179 56.6225 491.548 56.8816 490.988C57.1406 490.428 57.5809 489.971 58.1314 489.692C76.691 480.265 94.317 468.414 112.017 453.459C145.612 425.076 174.023 390.027 204.102 352.921C238.456 310.544 273.979 266.724 320.158 229.122C373.622 185.587 433.035 157.773 501.789 144.089C584.308 127.669 666.978 141.06 754.523 185.032C830.494 223.192 901.309 279.439 969.793 333.835C1033.74 384.625 1099.86 437.145 1166.2 471.01C1179.28 477.685 1192.24 483.578 1204.72 488.521C1205.06 488.654 1205.36 488.851 1205.62 489.102C1205.88 489.353 1206.09 489.652 1206.23 489.983C1206.37 490.313 1206.45 490.669 1206.45 491.029C1206.46 491.389 1206.39 491.747 1206.26 492.082C1206.13 492.417 1205.93 492.723 1205.68 492.981C1205.43 493.24 1205.13 493.447 1204.8 493.59C1204.47 493.733 1204.11 493.809 1203.75 493.815C1203.39 493.821 1203.03 493.755 1202.7 493.623C1190.06 488.615 1176.94 482.652 1163.71 475.897C1096.88 441.781 1030.54 389.089 966.38 338.131C898.115 283.909 827.526 227.841 752.06 189.935C665.647 146.533 584.135 133.297 502.86 149.471C435.004 162.976 376.375 190.42 323.623 233.376C277.884 270.62 242.543 314.216 208.364 356.376C178.117 393.689 149.548 428.933 115.557 457.651C97.5302 472.881 79.5586 484.962 60.6167 494.584C60.218 494.786 59.7937 494.883 59.3759 494.883V494.883Z" fill="white" fill-opacity="0.1"/>
<path d="M1515.66 671.527C1515.02 671.527 1514.41 671.307 1513.92 670.904C1513.43 670.501 1513.09 669.941 1512.97 669.318C1512.84 668.695 1512.94 668.048 1513.24 667.489C1513.54 666.929 1514.02 666.49 1514.61 666.248C1563.74 645.954 1607.59 619.528 1648.65 585.461C1674.44 564.06 1698.44 540.308 1722.02 512.851C1722.49 512.299 1723.17 511.957 1723.89 511.902C1724.62 511.847 1725.33 512.082 1725.89 512.556C1726.44 513.03 1726.78 513.703 1726.84 514.429C1726.89 515.154 1726.66 515.872 1726.18 516.424C1702.4 544.12 1678.18 568.082 1652.15 589.682C1610.66 624.108 1566.36 650.811 1516.71 671.318C1516.38 671.456 1516.02 671.527 1515.66 671.527H1515.66Z" fill="white" fill-opacity="0.1"/>
<path d="M466.078 397.422C467.321 396.25 467.379 394.293 466.207 393.049C465.036 391.806 463.078 391.748 461.835 392.919C460.591 394.091 460.533 396.049 461.705 397.292C462.876 398.536 464.834 398.594 466.078 397.422Z" fill="white" fill-opacity="0.44"/>
<path d="M522.257 365.239C523.5 364.067 523.558 362.109 522.386 360.866C521.215 359.623 519.257 359.564 518.014 360.736C516.77 361.908 516.712 363.866 517.884 365.109C519.055 366.352 521.013 366.411 522.257 365.239Z" fill="white" fill-opacity="0.44"/>
<path d="M526.758 265.406C528.002 264.235 528.06 262.277 526.888 261.033C525.716 259.79 523.759 259.732 522.515 260.904C521.272 262.075 521.214 264.033 522.385 265.276C523.557 266.52 525.515 266.578 526.758 265.406Z" fill="white" fill-opacity="0.44"/>
<path d="M292.388 425.681C293.631 424.509 293.689 422.551 292.518 421.308C291.346 420.065 289.388 420.007 288.145 421.178C286.901 422.35 286.843 424.308 288.015 425.551C289.187 426.794 291.144 426.853 292.388 425.681Z" fill="white" fill-opacity="0.44"/>
<path d="M236.494 313.041C237.738 311.869 237.796 309.912 236.624 308.668C235.453 307.425 233.495 307.367 232.251 308.538C231.008 309.71 230.95 311.668 232.121 312.911C233.293 314.155 235.251 314.213 236.494 313.041Z" fill="white" fill-opacity="0.44"/>
<path d="M287.762 202.142C289.005 200.971 289.063 199.013 287.892 197.77C286.72 196.526 284.762 196.468 283.519 197.64C282.275 198.811 282.217 200.769 283.389 202.012C284.561 203.256 286.518 203.314 287.762 202.142Z" fill="white" fill-opacity="0.44"/>
<path d="M704.889 25.9315C706.133 24.7598 706.191 22.8021 705.019 21.5587C703.848 20.3153 701.89 20.2571 700.646 21.4288C699.403 22.6005 699.345 24.5583 700.517 25.8016C701.688 27.045 703.646 27.1032 704.889 25.9315Z" fill="white" fill-opacity="0.44"/>
<path d="M860.875 362.515C862.119 361.343 862.177 359.385 861.005 358.142C859.834 356.899 857.876 356.84 856.632 358.012C855.389 359.184 855.331 361.142 856.503 362.385C857.674 363.628 859.632 363.687 860.875 362.515Z" fill="white" fill-opacity="0.44"/>
<path d="M1150.8 630.203C1152.05 629.031 1152.1 627.073 1150.93 625.83C1149.76 624.587 1147.8 624.528 1146.56 625.7C1145.32 626.872 1145.26 628.83 1146.43 630.073C1147.6 631.316 1149.56 631.374 1150.8 630.203Z" fill="white" fill-opacity="0.44"/>
<path d="M1246.82 652.494C1248.06 651.323 1248.12 649.365 1246.95 648.121C1245.77 646.878 1243.82 646.82 1242.57 647.992C1241.33 649.163 1241.27 651.121 1242.44 652.364C1243.62 653.608 1245.57 653.666 1246.82 652.494Z" fill="white" fill-opacity="0.44"/>
<path d="M1042.75 399.942C1043.99 398.77 1044.05 396.812 1042.88 395.569C1041.7 394.325 1039.75 394.267 1038.5 395.439C1037.26 396.611 1037.2 398.568 1038.37 399.812C1039.55 401.055 1041.5 401.113 1042.75 399.942Z" fill="white" fill-opacity="0.44"/>
<path d="M1234.63 316.494C1235.88 315.322 1235.93 313.364 1234.76 312.121C1233.59 310.878 1231.63 310.819 1230.39 311.991C1229.15 313.163 1229.09 315.121 1230.26 316.364C1231.43 317.607 1233.39 317.665 1234.63 316.494Z" fill="white" fill-opacity="0.44"/>
<path d="M1279.36 471.894C1280.6 470.722 1280.66 468.765 1279.49 467.521C1278.32 466.278 1276.36 466.22 1275.12 467.391C1273.88 468.563 1273.82 470.521 1274.99 471.764C1276.16 473.008 1278.12 473.066 1279.36 471.894Z" fill="white" fill-opacity="0.44"/>
<path d="M1161.82 561.512C1163.06 560.34 1163.12 558.382 1161.95 557.139C1160.77 555.896 1158.82 555.838 1157.57 557.009C1156.33 558.181 1156.27 560.139 1157.44 561.382C1158.61 562.625 1160.57 562.684 1161.82 561.512Z" fill="white" fill-opacity="0.44"/>
<path d="M1478.53 393.049C1479.77 391.877 1479.83 389.919 1478.66 388.676C1477.49 387.433 1475.53 387.374 1474.28 388.546C1473.04 389.718 1472.98 391.676 1474.16 392.919C1475.33 394.162 1477.28 394.22 1478.53 393.049Z" fill="white" fill-opacity="0.44"/>
<path d="M1694.7 508.62C1695.94 507.449 1696 505.491 1694.83 504.248C1693.66 503.004 1691.7 502.946 1690.46 504.118C1689.21 505.289 1689.16 507.247 1690.33 508.491C1691.5 509.734 1693.46 509.792 1694.7 508.62Z" fill="white" fill-opacity="0.44"/>
<path d="M1694.55 530.547C1695.79 529.376 1695.85 527.418 1694.68 526.175C1693.51 524.931 1691.55 524.873 1690.3 526.045C1689.06 527.216 1689 529.174 1690.17 530.418C1691.35 531.661 1693.3 531.719 1694.55 530.547Z" fill="white" fill-opacity="0.44"/>
<path d="M1676.62 585.043C1677.86 583.872 1677.92 581.914 1676.75 580.67C1675.58 579.427 1673.62 579.369 1672.38 580.54C1671.13 581.712 1671.07 583.67 1672.25 584.913C1673.42 586.157 1675.38 586.215 1676.62 585.043Z" fill="white" fill-opacity="0.44"/>
<path d="M1345.15 623.604C1346.4 622.432 1346.46 620.474 1345.28 619.231C1344.11 617.988 1342.16 617.93 1340.91 619.101C1339.67 620.273 1339.61 622.231 1340.78 623.474C1341.95 624.717 1343.91 624.776 1345.15 623.604Z" fill="white" fill-opacity="0.44"/>
<path d="M1516.36 519.698C1517.6 518.526 1517.66 516.569 1516.49 515.325C1515.32 514.082 1513.36 514.024 1512.11 515.195C1510.87 516.367 1510.81 518.325 1511.98 519.568C1513.16 520.812 1515.11 520.87 1516.36 519.698Z" fill="white" fill-opacity="0.44"/>
<path d="M1699.69 409.268C1700.93 408.096 1700.99 406.138 1699.82 404.895C1698.65 403.652 1696.69 403.594 1695.45 404.765C1694.2 405.937 1694.14 407.895 1695.32 409.138C1696.49 410.382 1698.45 410.44 1699.69 409.268Z" fill="white" fill-opacity="0.44"/>
<path d="M1819.99 238.374C1821.23 237.203 1821.29 235.245 1820.12 234.002C1818.94 232.758 1816.99 232.7 1815.74 233.872C1814.5 235.043 1814.44 237.001 1815.61 238.245C1816.78 239.488 1818.74 239.546 1819.99 238.374Z" fill="white" fill-opacity="0.44"/>
<path d="M1870.28 351.825C1871.52 350.653 1871.58 348.696 1870.41 347.452C1869.24 346.209 1867.28 346.151 1866.04 347.322C1864.79 348.494 1864.74 350.452 1865.91 351.695C1867.08 352.939 1869.04 352.997 1870.28 351.825Z" fill="white" fill-opacity="0.44"/>
<path d="M1516.09 314.773C1517.33 313.601 1517.39 311.643 1516.22 310.4C1515.04 309.157 1513.09 309.099 1511.84 310.27C1510.6 311.442 1510.54 313.4 1511.71 314.643C1512.89 315.886 1514.84 315.945 1516.09 314.773Z" fill="white" fill-opacity="0.44"/>
<path d="M1702.64 100.274C1703.88 99.1026 1703.94 97.1449 1702.77 95.9015C1701.6 94.6581 1699.64 94.5999 1698.4 95.7716C1697.15 96.9433 1697.1 98.9011 1698.27 100.144C1699.44 101.388 1701.4 101.446 1702.64 100.274Z" fill="white" fill-opacity="0.44"/>
<path d="M1672.92 228.89C1674.17 227.718 1674.22 225.76 1673.05 224.517C1671.88 223.274 1669.92 223.215 1668.68 224.387C1667.44 225.559 1667.38 227.517 1668.55 228.76C1669.72 230.003 1671.68 230.061 1672.92 228.89Z" fill="white" fill-opacity="0.44"/>
<path d="M1038.7 354.841C1039.94 353.669 1040 351.712 1038.83 350.468C1037.65 349.225 1035.7 349.167 1034.45 350.338C1033.21 351.51 1033.15 353.468 1034.32 354.711C1035.49 355.955 1037.45 356.013 1038.7 354.841Z" fill="white" fill-opacity="0.44"/>
<path d="M892.713 449.158C893.957 447.986 894.015 446.028 892.843 444.785C891.671 443.542 889.714 443.483 888.47 444.655C887.227 445.827 887.169 447.785 888.34 449.028C889.512 450.271 891.47 450.329 892.713 449.158Z" fill="white" fill-opacity="0.44"/>
<path d="M807.622 212.664C808.866 211.493 808.924 209.535 807.752 208.292C806.581 207.048 804.623 206.99 803.379 208.162C802.136 209.333 802.078 211.291 803.25 212.535C804.421 213.778 806.379 213.836 807.622 212.664Z" fill="white" fill-opacity="0.44"/>
<path d="M625.935 121.444C627.178 120.273 627.236 118.315 626.064 117.071C624.893 115.828 622.935 115.77 621.692 116.942C620.448 118.113 620.39 120.071 621.562 121.314C622.733 122.558 624.691 122.616 625.935 121.444Z" fill="white" fill-opacity="0.44"/>
<path d="M409.746 47.4264C410.989 46.2547 411.047 44.2969 409.876 43.0535C408.704 41.8101 406.746 41.752 405.503 42.9237C404.259 44.0953 404.201 46.0531 405.373 47.2965C406.545 48.5399 408.502 48.598 409.746 47.4264Z" fill="white" fill-opacity="0.44"/>
<path d="M614.764 6.62419C616.007 5.45252 616.065 3.49474 614.894 2.25136C613.722 1.00797 611.764 0.949831 610.521 2.1215C609.277 3.29316 609.219 5.25094 610.391 6.49433C611.563 7.73771 613.52 7.79585 614.764 6.62419Z" fill="white" fill-opacity="0.44"/>
<path d="M464.204 264.57C465.447 263.399 465.505 261.441 464.334 260.198C463.162 258.954 461.204 258.896 459.961 260.068C458.718 261.239 458.659 263.197 459.831 264.441C461.003 265.684 462.961 265.742 464.204 264.57Z" fill="white" fill-opacity="0.44"/>
<path d="M1024.11 135.376C1025.35 134.205 1025.41 132.247 1024.24 131.004C1023.06 129.76 1021.11 129.702 1019.86 130.874C1018.62 132.045 1018.56 134.003 1019.73 135.247C1020.9 136.49 1022.86 136.548 1024.11 135.376Z" fill="white" fill-opacity="0.44"/>
<path d="M1799.75 495.462C1800.99 494.29 1801.05 492.332 1799.88 491.089C1798.71 489.845 1796.75 489.787 1795.51 490.959C1794.26 492.131 1794.2 494.088 1795.38 495.332C1796.55 496.575 1798.51 496.633 1799.75 495.462Z" fill="white" fill-opacity="0.44"/>
</svg>
